<svg width="25" height="25" viewBox="0 0 25 25" fill="none" xmlns="http://www.w3.org/2000/svg">
<g clip-path="url(#clip0_571_6044)">
<path d="M11.8534 6.90796H10.1292V10.0878H6.89648V11.8422H10.1292V15.022H11.8534V11.8422H15.0323V10.0878H11.8534V6.90796Z" fill="white"/>
<path d="M21.9048 10.9791C21.9048 8.04918 20.7664 5.29535 18.699 3.22495C16.6353 1.17047 13.863 0.0200195 10.9759 0.0200195C8.08873 0.0200195 5.3164 1.17047 3.25269 3.22495C1.18534 5.29535 0.046875 8.04918 0.046875 10.9791C0.046875 13.9089 1.18529 16.6628 3.25264 18.7335C5.21197 20.6833 7.81356 21.8226 10.5521 21.93C13.2907 22.0374 15.9707 21.1052 18.0717 19.3146L23.7446 24.9799L24.9523 23.728L19.2991 18.082C20.9841 16.1134 21.9099 13.5896 21.9048 10.9791ZM4.46207 17.4829C3.61018 16.636 2.93326 15.6244 2.4711 14.5075C2.00894 13.3906 1.77086 12.191 1.77086 10.9791C1.77086 9.76726 2.00894 8.56762 2.4711 7.45073C2.93326 6.33383 3.61018 5.32222 4.46207 4.47534C6.20422 2.74573 8.5418 1.77759 10.9758 1.77759C13.4098 1.77759 15.7474 2.74573 17.4895 4.47534C18.3414 5.32222 19.0183 6.33384 19.4805 7.45074C19.9426 8.56763 20.1807 9.76726 20.1807 10.9791C20.1807 12.191 19.9426 13.3906 19.4805 14.5075C19.0183 15.6244 18.3414 16.636 17.4895 17.4829C13.8979 21.08 8.05372 21.08 4.46207 17.4829Z" fill="white"/>
</g>
<defs>
<clipPath id="clip0_571_6044">
<rect width="25" height="25" fill="white"/>
</clipPath>
</defs>
</svg>
