<svg width="34" height="35" viewBox="0 0 34 35" fill="none" xmlns="http://www.w3.org/2000/svg">
<path d="M17 34.4986C7.6 34.4986 0 26.8494 0 17.3885C0 7.92767 7.6 0.278442 17 0.278442C26.4 0.278442 34 7.92767 34 17.3885C34 26.8494 26.4 34.4986 17 34.4986ZM17 2.2914C8.7 2.2914 2 9.03479 2 17.3885C2 25.7423 8.7 32.4857 17 32.4857C25.3 32.4857 32 25.7423 32 17.3885C32 9.03479 25.3 2.2914 17 2.2914Z" fill="white"/>
<line x1="13.75" y1="9" x2="13.75" y2="24" stroke="white" stroke-width="1.5"/>
<line x1="20.75" y1="9" x2="20.75" y2="24" stroke="white" stroke-width="1.5"/>
</svg>
