<svg width="34" height="34" viewBox="0 0 34 34" fill="none" xmlns="http://www.w3.org/2000/svg">
<path d="M17 34C7.6 34 0 26.4 0 17C0 7.6 7.6 0 17 0C26.4 0 34 7.6 34 17C34 26.4 26.4 34 17 34ZM17 2C8.7 2 2 8.7 2 17C2 25.3 8.7 32 17 32C25.3 32 32 25.3 32 17C32 8.7 25.3 2 17 2Z" fill="white"/>
<g clip-path="url(#clip0_3001_5517)">
<path fill-rule="evenodd" clip-rule="evenodd" d="M13.5424 12.975C13.5592 12.833 13.6089 12.6969 13.6875 12.5776C13.7661 12.4582 13.8716 12.3588 13.9954 12.2874C14.1192 12.2159 14.258 12.1744 14.4007 12.166C14.5434 12.1577 14.6861 12.1828 14.8174 12.2394C15.4812 12.5231 16.9687 13.1975 18.8562 14.2869C20.7443 15.3769 22.0724 16.3288 22.6493 16.7606C23.1418 17.13 23.143 17.8625 22.6499 18.2331C22.0787 18.6625 20.7668 19.6019 18.8562 20.7056C16.9437 21.8094 15.4737 22.4756 14.8162 22.7556C14.2499 22.9975 13.6162 22.6306 13.5424 22.02C13.4562 21.3063 13.2949 19.6856 13.2949 17.4969C13.2949 15.3094 13.4555 13.6894 13.5424 12.975Z" fill="white"/>
</g>
<defs>
<clipPath id="clip0_3001_5517">
<rect width="15" height="15" fill="white" transform="translate(10 10)"/>
</clipPath>
</defs>
</svg>
